# xmcd
#
# Track frame offsets:
#	150
#	15864
#	30362
#	43161
#	64011
#	76460
#	91645
#	106505
#	118641
#	133360
#	151900
#
# Disc length: 2248 seconds
#
# Revision: 1
# Processed by: cddbd v1.5.1PL2 Copyright (c) Steve Scherf et al.
# Submitted via: audiograbber 1.83.01
#
DISCID=7608c60b
DTITLE=Moot Davis - Moot Davis
DYEAR=2002
DGENRE=Country
TTITLE0=Thanks for Breakin My Heart
TTITLE1=Whiskey Town
TTITLE2=Midnight Train
TTITLE3=Way Down Town
TTITLE4=Thick of It Now
TTITLE5=The Highway Kind
TTITLE6=Nothin'
TTITLE7=Jug of Wine
TTITLE8=One of a Kind
TTITLE9=Reckless Heart
TTITLE10=The Last Train Home
EXTD=
EXTT0=
EXTT1=
EXTT2=
EXTT3=
EXTT4=
EXTT5=
EXTT6=
EXTT7=
EXTT8=
EXTT9=
EXTT10=
PLAYORDER=
